<svg width="70" height="70" viewBox="0 0 70 70" fill="none" xmlns="http://www.w3.org/2000/svg">
<rect width="70" height="70" fill="white"/>
<path d="M64.583 37.7783C64.481 37.7783 64.388 37.8474 64.34 37.992C63.725 39.8306 62.894 40.9243 62.21 40.9243C61.817 40.9243 61.658 40.4654 61.658 39.7457C61.658 37.9449 62.687 34.1263 63.206 32.3851C63.266 32.1746 63.305 31.986 63.305 31.8257C63.305 31.3197 63.041 31.0714 62.387 31.0714C61.682 31.0714 60.923 31.3606 60.185 32.7151C59.93 31.5209 59.159 30.9991 58.082 30.9991C56.837 30.9991 55.634 31.8383 54.644 33.1991C53.654 34.56 52.49 35.0063 51.614 34.7863C52.244 33.1709 52.478 31.964 52.478 31.0683C52.478 29.6634 51.815 28.8149 50.744 28.8149C49.115 28.8149 48.176 30.4429 48.176 32.1557C48.176 33.4789 48.749 34.8397 50.009 35.4997C48.953 38.0014 47.411 40.2643 46.826 40.2643C46.07 40.2643 45.848 36.3891 45.89 33.6171C45.917 32.0269 46.043 31.9451 46.043 31.4643C46.043 31.1877 45.872 30.9991 45.185 30.9991C43.583 30.9991 43.088 32.4197 43.013 34.0509C42.989 34.67 42.896 35.286 42.737 35.8831C42.068 38.3849 40.688 40.2831 39.788 40.2831C39.371 40.2831 39.257 39.8463 39.257 39.2743C39.257 37.4734 40.22 35.2231 40.22 33.3029C40.22 31.8917 39.629 30.9991 38.516 30.9991C37.205 30.9991 35.471 32.6334 33.83 35.6946C34.37 33.35 34.592 31.0809 32.993 31.0809C32.645 31.0871 32.306 31.1783 32 31.3511C31.79 31.4549 31.661 31.6811 31.676 31.9231C31.829 34.4186 29.756 40.8111 27.791 40.8111C27.434 40.8111 27.26 40.4057 27.26 39.752C27.26 37.948 28.286 34.1389 28.802 32.3946C28.868 32.1683 28.904 31.9734 28.904 31.8037C28.904 31.326 28.622 31.0809 27.983 31.0809C27.281 31.0809 26.519 31.3606 25.784 32.7151C25.526 31.5209 24.755 30.9991 23.678 30.9991C21.911 30.9991 19.937 32.9571 19.07 35.5091C17.909 38.916 15.569 42.2066 12.419 42.2066C9.56 42.2066 8.051 39.7143 8.051 35.7763C8.051 30.0909 12.035 25.4457 14.99 25.4457C16.403 25.4457 17.078 26.3886 17.078 27.8343C17.078 29.5849 16.145 30.3989 16.145 31.0651C16.145 31.2694 16.307 31.4706 16.628 31.4706C17.912 31.4706 19.424 29.8897 19.424 27.7337C19.424 25.5777 17.753 24 14.798 24C9.914 24 5 29.148 5 35.7449C5 40.9934 7.472 44.1583 11.747 44.1583C14.663 44.1583 17.21 41.7823 18.584 39.0103C18.74 41.3077 19.736 42.5083 21.254 42.5083C22.604 42.5083 23.696 41.666 24.53 40.1857C24.851 41.7351 25.703 42.4926 26.81 42.4926C28.079 42.4926 29.141 41.6503 30.152 40.0851C30.137 41.314 30.404 42.4706 31.421 42.4706C31.901 42.4706 32.474 42.3543 32.576 41.9143C33.647 37.2754 36.293 33.4883 37.103 33.4883C37.343 33.4883 37.409 33.7303 37.409 34.0163C37.409 35.2766 36.56 37.86 36.56 39.51C36.56 41.292 37.283 42.4706 38.777 42.4706C40.433 42.4706 42.116 40.346 43.238 37.2409C43.589 40.1417 44.348 42.4831 45.536 42.4831C46.994 42.4831 49.583 39.268 51.152 35.8643C51.767 35.946 52.691 35.924 53.579 35.2671C53.201 36.2697 52.979 37.3666 52.979 38.4634C52.979 41.622 54.419 42.5083 55.658 42.5083C57.005 42.5083 58.097 41.666 58.934 40.1857C59.21 41.5214 59.915 42.4894 61.211 42.4894C63.239 42.4894 65 40.3177 65 38.5357C65 38.0643 64.808 37.7783 64.583 37.7783ZM22.49 40.7577C21.671 40.7577 21.35 39.8934 21.35 38.6049C21.35 36.3671 22.811 32.6303 24.356 32.6303C25.031 32.6303 25.286 33.4631 25.286 34.4814C25.286 36.7537 23.897 40.7577 22.49 40.7577ZM50.543 34.0791C50.054 33.4694 49.877 32.6397 49.877 31.9011C49.877 30.9897 50.195 30.2197 50.576 30.2197C50.957 30.2197 51.074 30.6126 51.074 31.1594C51.074 32.074 50.762 33.4097 50.543 34.0791ZM56.894 40.7577C56.075 40.7577 55.754 39.7646 55.754 38.6049C55.754 36.4457 57.215 32.6303 58.772 32.6303C59.447 32.6303 59.687 33.4569 59.687 34.4814C59.687 36.7537 58.322 40.7577 56.894 40.7577Z" fill="#7D2AE7"/>
<path d="M64.583 37.7783C64.481 37.7783 64.388 37.8474 64.34 37.992C63.725 39.8306 62.894 40.9243 62.21 40.9243C61.817 40.9243 61.658 40.4654 61.658 39.7457C61.658 37.9449 62.687 34.1263 63.206 32.3851C63.266 32.1746 63.305 31.986 63.305 31.8257C63.305 31.3197 63.041 31.0714 62.387 31.0714C61.682 31.0714 60.923 31.3606 60.185 32.7151C59.93 31.5209 59.159 30.9991 58.082 30.9991C56.837 30.9991 55.634 31.8383 54.644 33.1991C53.654 34.56 52.49 35.0063 51.614 34.7863C52.244 33.1709 52.478 31.964 52.478 31.0683C52.478 29.6634 51.815 28.8149 50.744 28.8149C49.115 28.8149 48.176 30.4429 48.176 32.1557C48.176 33.4789 48.749 34.8397 50.009 35.4997C48.953 38.0014 47.411 40.2643 46.826 40.2643C46.07 40.2643 45.848 36.3891 45.89 33.6171C45.917 32.0269 46.043 31.9451 46.043 31.4643C46.043 31.1877 45.872 30.9991 45.185 30.9991C43.583 30.9991 43.088 32.4197 43.013 34.0509C42.989 34.67 42.896 35.286 42.737 35.8831C42.068 38.3849 40.688 40.2831 39.788 40.2831C39.371 40.2831 39.257 39.8463 39.257 39.2743C39.257 37.4734 40.22 35.2231 40.22 33.3029C40.22 31.8917 39.629 30.9991 38.516 30.9991C37.205 30.9991 35.471 32.6334 33.83 35.6946C34.37 33.35 34.592 31.0809 32.993 31.0809C32.645 31.0871 32.306 31.1783 32 31.3511C31.79 31.4549 31.661 31.6811 31.676 31.9231C31.829 34.4186 29.756 40.8111 27.791 40.8111C27.434 40.8111 27.26 40.4057 27.26 39.752C27.26 37.948 28.286 34.1389 28.802 32.3946C28.868 32.1683 28.904 31.9734 28.904 31.8037C28.904 31.326 28.622 31.0809 27.983 31.0809C27.281 31.0809 26.519 31.3606 25.784 32.7151C25.526 31.5209 24.755 30.9991 23.678 30.9991C21.911 30.9991 19.937 32.9571 19.07 35.5091C17.909 38.916 15.569 42.2066 12.419 42.2066C9.56 42.2066 8.051 39.7143 8.051 35.7763C8.051 30.0909 12.035 25.4457 14.99 25.4457C16.403 25.4457 17.078 26.3886 17.078 27.8343C17.078 29.5849 16.145 30.3989 16.145 31.0651C16.145 31.2694 16.307 31.4706 16.628 31.4706C17.912 31.4706 19.424 29.8897 19.424 27.7337C19.424 25.5777 17.753 24 14.798 24C9.914 24 5 29.148 5 35.7449C5 40.9934 7.472 44.1583 11.747 44.1583C14.663 44.1583 17.21 41.7823 18.584 39.0103C18.74 41.3077 19.736 42.5083 21.254 42.5083C22.604 42.5083 23.696 41.666 24.53 40.1857C24.851 41.7351 25.703 42.4926 26.81 42.4926C28.079 42.4926 29.141 41.6503 30.152 40.0851C30.137 41.314 30.404 42.4706 31.421 42.4706C31.901 42.4706 32.474 42.3543 32.576 41.9143C33.647 37.2754 36.293 33.4883 37.103 33.4883C37.343 33.4883 37.409 33.7303 37.409 34.0163C37.409 35.2766 36.56 37.86 36.56 39.51C36.56 41.292 37.283 42.4706 38.777 42.4706C40.433 42.4706 42.116 40.346 43.238 37.2409C43.589 40.1417 44.348 42.4831 45.536 42.4831C46.994 42.4831 49.583 39.268 51.152 35.8643C51.767 35.946 52.691 35.924 53.579 35.2671C53.201 36.2697 52.979 37.3666 52.979 38.4634C52.979 41.622 54.419 42.5083 55.658 42.5083C57.005 42.5083 58.097 41.666 58.934 40.1857C59.21 41.5214 59.915 42.4894 61.211 42.4894C63.239 42.4894 65 40.3177 65 38.5357C65 38.0643 64.808 37.7783 64.583 37.7783ZM22.49 40.7577C21.671 40.7577 21.35 39.8934 21.35 38.6049C21.35 36.3671 22.811 32.6303 24.356 32.6303C25.031 32.6303 25.286 33.4631 25.286 34.4814C25.286 36.7537 23.897 40.7577 22.49 40.7577ZM50.543 34.0791C50.054 33.4694 49.877 32.6397 49.877 31.9011C49.877 30.9897 50.195 30.2197 50.576 30.2197C50.957 30.2197 51.074 30.6126 51.074 31.1594C51.074 32.074 50.762 33.4097 50.543 34.0791ZM56.894 40.7577C56.075 40.7577 55.754 39.7646 55.754 38.6049C55.754 36.4457 57.215 32.6303 58.772 32.6303C59.447 32.6303 59.687 33.4569 59.687 34.4814C59.687 36.7537 58.322 40.7577 56.894 40.7577Z" fill="url(#paint0_radial_427_725)"/>
<path d="M64.583 37.7783C64.481 37.7783 64.388 37.8474 64.34 37.992C63.725 39.8306 62.894 40.9243 62.21 40.9243C61.817 40.9243 61.658 40.4654 61.658 39.7457C61.658 37.9449 62.687 34.1263 63.206 32.3851C63.266 32.1746 63.305 31.986 63.305 31.8257C63.305 31.3197 63.041 31.0714 62.387 31.0714C61.682 31.0714 60.923 31.3606 60.185 32.7151C59.93 31.5209 59.159 30.9991 58.082 30.9991C56.837 30.9991 55.634 31.8383 54.644 33.1991C53.654 34.56 52.49 35.0063 51.614 34.7863C52.244 33.1709 52.478 31.964 52.478 31.0683C52.478 29.6634 51.815 28.8149 50.744 28.8149C49.115 28.8149 48.176 30.4429 48.176 32.1557C48.176 33.4789 48.749 34.8397 50.009 35.4997C48.953 38.0014 47.411 40.2643 46.826 40.2643C46.07 40.2643 45.848 36.3891 45.89 33.6171C45.917 32.0269 46.043 31.9451 46.043 31.4643C46.043 31.1877 45.872 30.9991 45.185 30.9991C43.583 30.9991 43.088 32.4197 43.013 34.0509C42.989 34.67 42.896 35.286 42.737 35.8831C42.068 38.3849 40.688 40.2831 39.788 40.2831C39.371 40.2831 39.257 39.8463 39.257 39.2743C39.257 37.4734 40.22 35.2231 40.22 33.3029C40.22 31.8917 39.629 30.9991 38.516 30.9991C37.205 30.9991 35.471 32.6334 33.83 35.6946C34.37 33.35 34.592 31.0809 32.993 31.0809C32.645 31.0871 32.306 31.1783 32 31.3511C31.79 31.4549 31.661 31.6811 31.676 31.9231C31.829 34.4186 29.756 40.8111 27.791 40.8111C27.434 40.8111 27.26 40.4057 27.26 39.752C27.26 37.948 28.286 34.1389 28.802 32.3946C28.868 32.1683 28.904 31.9734 28.904 31.8037C28.904 31.326 28.622 31.0809 27.983 31.0809C27.281 31.0809 26.519 31.3606 25.784 32.7151C25.526 31.5209 24.755 30.9991 23.678 30.9991C21.911 30.9991 19.937 32.9571 19.07 35.5091C17.909 38.916 15.569 42.2066 12.419 42.2066C9.56 42.2066 8.051 39.7143 8.051 35.7763C8.051 30.0909 12.035 25.4457 14.99 25.4457C16.403 25.4457 17.078 26.3886 17.078 27.8343C17.078 29.5849 16.145 30.3989 16.145 31.0651C16.145 31.2694 16.307 31.4706 16.628 31.4706C17.912 31.4706 19.424 29.8897 19.424 27.7337C19.424 25.5777 17.753 24 14.798 24C9.914 24 5 29.148 5 35.7449C5 40.9934 7.472 44.1583 11.747 44.1583C14.663 44.1583 17.21 41.7823 18.584 39.0103C18.74 41.3077 19.736 42.5083 21.254 42.5083C22.604 42.5083 23.696 41.666 24.53 40.1857C24.851 41.7351 25.703 42.4926 26.81 42.4926C28.079 42.4926 29.141 41.6503 30.152 40.0851C30.137 41.314 30.404 42.4706 31.421 42.4706C31.901 42.4706 32.474 42.3543 32.576 41.9143C33.647 37.2754 36.293 33.4883 37.103 33.4883C37.343 33.4883 37.409 33.7303 37.409 34.0163C37.409 35.2766 36.56 37.86 36.56 39.51C36.56 41.292 37.283 42.4706 38.777 42.4706C40.433 42.4706 42.116 40.346 43.238 37.2409C43.589 40.1417 44.348 42.4831 45.536 42.4831C46.994 42.4831 49.583 39.268 51.152 35.8643C51.767 35.946 52.691 35.924 53.579 35.2671C53.201 36.2697 52.979 37.3666 52.979 38.4634C52.979 41.622 54.419 42.5083 55.658 42.5083C57.005 42.5083 58.097 41.666 58.934 40.1857C59.21 41.5214 59.915 42.4894 61.211 42.4894C63.239 42.4894 65 40.3177 65 38.5357C65 38.0643 64.808 37.7783 64.583 37.7783ZM22.49 40.7577C21.671 40.7577 21.35 39.8934 21.35 38.6049C21.35 36.3671 22.811 32.6303 24.356 32.6303C25.031 32.6303 25.286 33.4631 25.286 34.4814C25.286 36.7537 23.897 40.7577 22.49 40.7577ZM50.543 34.0791C50.054 33.4694 49.877 32.6397 49.877 31.9011C49.877 30.9897 50.195 30.2197 50.576 30.2197C50.957 30.2197 51.074 30.6126 51.074 31.1594C51.074 32.074 50.762 33.4097 50.543 34.0791ZM56.894 40.7577C56.075 40.7577 55.754 39.7646 55.754 38.6049C55.754 36.4457 57.215 32.6303 58.772 32.6303C59.447 32.6303 59.687 33.4569 59.687 34.4814C59.687 36.7537 58.322 40.7577 56.894 40.7577Z" fill="url(#paint1_radial_427_725)"/>
<path d="M64.583 37.7783C64.481 37.7783 64.388 37.8474 64.34 37.992C63.725 39.8306 62.894 40.9243 62.21 40.9243C61.817 40.9243 61.658 40.4654 61.658 39.7457C61.658 37.9449 62.687 34.1263 63.206 32.3851C63.266 32.1746 63.305 31.986 63.305 31.8257C63.305 31.3197 63.041 31.0714 62.387 31.0714C61.682 31.0714 60.923 31.3606 60.185 32.7151C59.93 31.5209 59.159 30.9991 58.082 30.9991C56.837 30.9991 55.634 31.8383 54.644 33.1991C53.654 34.56 52.49 35.0063 51.614 34.7863C52.244 33.1709 52.478 31.964 52.478 31.0683C52.478 29.6634 51.815 28.8149 50.744 28.8149C49.115 28.8149 48.176 30.4429 48.176 32.1557C48.176 33.4789 48.749 34.8397 50.009 35.4997C48.953 38.0014 47.411 40.2643 46.826 40.2643C46.07 40.2643 45.848 36.3891 45.89 33.6171C45.917 32.0269 46.043 31.9451 46.043 31.4643C46.043 31.1877 45.872 30.9991 45.185 30.9991C43.583 30.9991 43.088 32.4197 43.013 34.0509C42.989 34.67 42.896 35.286 42.737 35.8831C42.068 38.3849 40.688 40.2831 39.788 40.2831C39.371 40.2831 39.257 39.8463 39.257 39.2743C39.257 37.4734 40.22 35.2231 40.22 33.3029C40.22 31.8917 39.629 30.9991 38.516 30.9991C37.205 30.9991 35.471 32.6334 33.83 35.6946C34.37 33.35 34.592 31.0809 32.993 31.0809C32.645 31.0871 32.306 31.1783 32 31.3511C31.79 31.4549 31.661 31.6811 31.676 31.9231C31.829 34.4186 29.756 40.8111 27.791 40.8111C27.434 40.8111 27.26 40.4057 27.26 39.752C27.26 37.948 28.286 34.1389 28.802 32.3946C28.868 32.1683 28.904 31.9734 28.904 31.8037C28.904 31.326 28.622 31.0809 27.983 31.0809C27.281 31.0809 26.519 31.3606 25.784 32.7151C25.526 31.5209 24.755 30.9991 23.678 30.9991C21.911 30.9991 19.937 32.9571 19.07 35.5091C17.909 38.916 15.569 42.2066 12.419 42.2066C9.56 42.2066 8.051 39.7143 8.051 35.7763C8.051 30.0909 12.035 25.4457 14.99 25.4457C16.403 25.4457 17.078 26.3886 17.078 27.8343C17.078 29.5849 16.145 30.3989 16.145 31.0651C16.145 31.2694 16.307 31.4706 16.628 31.4706C17.912 31.4706 19.424 29.8897 19.424 27.7337C19.424 25.5777 17.753 24 14.798 24C9.914 24 5 29.148 5 35.7449C5 40.9934 7.472 44.1583 11.747 44.1583C14.663 44.1583 17.21 41.7823 18.584 39.0103C18.74 41.3077 19.736 42.5083 21.254 42.5083C22.604 42.5083 23.696 41.666 24.53 40.1857C24.851 41.7351 25.703 42.4926 26.81 42.4926C28.079 42.4926 29.141 41.6503 30.152 40.0851C30.137 41.314 30.404 42.4706 31.421 42.4706C31.901 42.4706 32.474 42.3543 32.576 41.9143C33.647 37.2754 36.293 33.4883 37.103 33.4883C37.343 33.4883 37.409 33.7303 37.409 34.0163C37.409 35.2766 36.56 37.86 36.56 39.51C36.56 41.292 37.283 42.4706 38.777 42.4706C40.433 42.4706 42.116 40.346 43.238 37.2409C43.589 40.1417 44.348 42.4831 45.536 42.4831C46.994 42.4831 49.583 39.268 51.152 35.8643C51.767 35.946 52.691 35.924 53.579 35.2671C53.201 36.2697 52.979 37.3666 52.979 38.4634C52.979 41.622 54.419 42.5083 55.658 42.5083C57.005 42.5083 58.097 41.666 58.934 40.1857C59.21 41.5214 59.915 42.4894 61.211 42.4894C63.239 42.4894 65 40.3177 65 38.5357C65 38.0643 64.808 37.7783 64.583 37.7783ZM22.49 40.7577C21.671 40.7577 21.35 39.8934 21.35 38.6049C21.35 36.3671 22.811 32.6303 24.356 32.6303C25.031 32.6303 25.286 33.4631 25.286 34.4814C25.286 36.7537 23.897 40.7577 22.49 40.7577ZM50.543 34.0791C50.054 33.4694 49.877 32.6397 49.877 31.9011C49.877 30.9897 50.195 30.2197 50.576 30.2197C50.957 30.2197 51.074 30.6126 51.074 31.1594C51.074 32.074 50.762 33.4097 50.543 34.0791ZM56.894 40.7577C56.075 40.7577 55.754 39.7646 55.754 38.6049C55.754 36.4457 57.215 32.6303 58.772 32.6303C59.447 32.6303 59.687 33.4569 59.687 34.4814C59.687 36.7537 58.322 40.7577 56.894 40.7577Z" fill="url(#paint2_radial_427_725)"/>
<path d="M64.583 37.7783C64.481 37.7783 64.388 37.8474 64.34 37.992C63.725 39.8306 62.894 40.9243 62.21 40.9243C61.817 40.9243 61.658 40.4654 61.658 39.7457C61.658 37.9449 62.687 34.1263 63.206 32.3851C63.266 32.1746 63.305 31.986 63.305 31.8257C63.305 31.3197 63.041 31.0714 62.387 31.0714C61.682 31.0714 60.923 31.3606 60.185 32.7151C59.93 31.5209 59.159 30.9991 58.082 30.9991C56.837 30.9991 55.634 31.8383 54.644 33.1991C53.654 34.56 52.49 35.0063 51.614 34.7863C52.244 33.1709 52.478 31.964 52.478 31.0683C52.478 29.6634 51.815 28.8149 50.744 28.8149C49.115 28.8149 48.176 30.4429 48.176 32.1557C48.176 33.4789 48.749 34.8397 50.009 35.4997C48.953 38.0014 47.411 40.2643 46.826 40.2643C46.07 40.2643 45.848 36.3891 45.89 33.6171C45.917 32.0269 46.043 31.9451 46.043 31.4643C46.043 31.1877 45.872 30.9991 45.185 30.9991C43.583 30.9991 43.088 32.4197 43.013 34.0509C42.989 34.67 42.896 35.286 42.737 35.8831C42.068 38.3849 40.688 40.2831 39.788 40.2831C39.371 40.2831 39.257 39.8463 39.257 39.2743C39.257 37.4734 40.22 35.2231 40.22 33.3029C40.22 31.8917 39.629 30.9991 38.516 30.9991C37.205 30.9991 35.471 32.6334 33.83 35.6946C34.37 33.35 34.592 31.0809 32.993 31.0809C32.645 31.0871 32.306 31.1783 32 31.3511C31.79 31.4549 31.661 31.6811 31.676 31.9231C31.829 34.4186 29.756 40.8111 27.791 40.8111C27.434 40.8111 27.26 40.4057 27.26 39.752C27.26 37.948 28.286 34.1389 28.802 32.3946C28.868 32.1683 28.904 31.9734 28.904 31.8037C28.904 31.326 28.622 31.0809 27.983 31.0809C27.281 31.0809 26.519 31.3606 25.784 32.7151C25.526 31.5209 24.755 30.9991 23.678 30.9991C21.911 30.9991 19.937 32.9571 19.07 35.5091C17.909 38.916 15.569 42.2066 12.419 42.2066C9.56 42.2066 8.051 39.7143 8.051 35.7763C8.051 30.0909 12.035 25.4457 14.99 25.4457C16.403 25.4457 17.078 26.3886 17.078 27.8343C17.078 29.5849 16.145 30.3989 16.145 31.0651C16.145 31.2694 16.307 31.4706 16.628 31.4706C17.912 31.4706 19.424 29.8897 19.424 27.7337C19.424 25.5777 17.753 24 14.798 24C9.914 24 5 29.148 5 35.7449C5 40.9934 7.472 44.1583 11.747 44.1583C14.663 44.1583 17.21 41.7823 18.584 39.0103C18.74 41.3077 19.736 42.5083 21.254 42.5083C22.604 42.5083 23.696 41.666 24.53 40.1857C24.851 41.7351 25.703 42.4926 26.81 42.4926C28.079 42.4926 29.141 41.6503 30.152 40.0851C30.137 41.314 30.404 42.4706 31.421 42.4706C31.901 42.4706 32.474 42.3543 32.576 41.9143C33.647 37.2754 36.293 33.4883 37.103 33.4883C37.343 33.4883 37.409 33.7303 37.409 34.0163C37.409 35.2766 36.56 37.86 36.56 39.51C36.56 41.292 37.283 42.4706 38.777 42.4706C40.433 42.4706 42.116 40.346 43.238 37.2409C43.589 40.1417 44.348 42.4831 45.536 42.4831C46.994 42.4831 49.583 39.268 51.152 35.8643C51.767 35.946 52.691 35.924 53.579 35.2671C53.201 36.2697 52.979 37.3666 52.979 38.4634C52.979 41.622 54.419 42.5083 55.658 42.5083C57.005 42.5083 58.097 41.666 58.934 40.1857C59.21 41.5214 59.915 42.4894 61.211 42.4894C63.239 42.4894 65 40.3177 65 38.5357C65 38.0643 64.808 37.7783 64.583 37.7783ZM22.49 40.7577C21.671 40.7577 21.35 39.8934 21.35 38.6049C21.35 36.3671 22.811 32.6303 24.356 32.6303C25.031 32.6303 25.286 33.4631 25.286 34.4814C25.286 36.7537 23.897 40.7577 22.49 40.7577ZM50.543 34.0791C50.054 33.4694 49.877 32.6397 49.877 31.9011C49.877 30.9897 50.195 30.2197 50.576 30.2197C50.957 30.2197 51.074 30.6126 51.074 31.1594C51.074 32.074 50.762 33.4097 50.543 34.0791ZM56.894 40.7577C56.075 40.7577 55.754 39.7646 55.754 38.6049C55.754 36.4457 57.215 32.6303 58.772 32.6303C59.447 32.6303 59.687 33.4569 59.687 34.4814C59.687 36.7537 58.322 40.7577 56.894 40.7577Z" fill="url(#paint3_radial_427_725)"/>
<path d="M64.583 37.7783C64.481 37.7783 64.388 37.8474 64.34 37.992C63.725 39.8306 62.894 40.9243 62.21 40.9243C61.817 40.9243 61.658 40.4654 61.658 39.7457C61.658 37.9449 62.687 34.1263 63.206 32.3851C63.266 32.1746 63.305 31.986 63.305 31.8257C63.305 31.3197 63.041 31.0714 62.387 31.0714C61.682 31.0714 60.923 31.3606 60.185 32.7151C59.93 31.5209 59.159 30.9991 58.082 30.9991C56.837 30.9991 55.634 31.8383 54.644 33.1991C53.654 34.56 52.49 35.0063 51.614 34.7863C52.244 33.1709 52.478 31.964 52.478 31.0683C52.478 29.6634 51.815 28.8149 50.744 28.8149C49.115 28.8149 48.176 30.4429 48.176 32.1557C48.176 33.4789 48.749 34.8397 50.009 35.4997C48.953 38.0014 47.411 40.2643 46.826 40.2643C46.07 40.2643 45.848 36.3891 45.89 33.6171C45.917 32.0269 46.043 31.9451 46.043 31.4643C46.043 31.1877 45.872 30.9991 45.185 30.9991C43.583 30.9991 43.088 32.4197 43.013 34.0509C42.989 34.67 42.896 35.286 42.737 35.8831C42.068 38.3849 40.688 40.2831 39.788 40.2831C39.371 40.2831 39.257 39.8463 39.257 39.2743C39.257 37.4734 40.22 35.2231 40.22 33.3029C40.22 31.8917 39.629 30.9991 38.516 30.9991C37.205 30.9991 35.471 32.6334 33.83 35.6946C34.37 33.35 34.592 31.0809 32.993 31.0809C32.645 31.0871 32.306 31.1783 32 31.3511C31.79 31.4549 31.661 31.6811 31.676 31.9231C31.829 34.4186 29.756 40.8111 27.791 40.8111C27.434 40.8111 27.26 40.4057 27.26 39.752C27.26 37.948 28.286 34.1389 28.802 32.3946C28.868 32.1683 28.904 31.9734 28.904 31.8037C28.904 31.326 28.622 31.0809 27.983 31.0809C27.281 31.0809 26.519 31.3606 25.784 32.7151C25.526 31.5209 24.755 30.9991 23.678 30.9991C21.911 30.9991 19.937 32.9571 19.07 35.5091C17.909 38.916 15.569 42.2066 12.419 42.2066C9.56 42.2066 8.051 39.7143 8.051 35.7763C8.051 30.0909 12.035 25.4457 14.99 25.4457C16.403 25.4457 17.078 26.3886 17.078 27.8343C17.078 29.5849 16.145 30.3989 16.145 31.0651C16.145 31.2694 16.307 31.4706 16.628 31.4706C17.912 31.4706 19.424 29.8897 19.424 27.7337C19.424 25.5777 17.753 24 14.798 24C9.914 24 5 29.148 5 35.7449C5 40.9934 7.472 44.1583 11.747 44.1583C14.663 44.1583 17.21 41.7823 18.584 39.0103C18.74 41.3077 19.736 42.5083 21.254 42.5083C22.604 42.5083 23.696 41.666 24.53 40.1857C24.851 41.7351 25.703 42.4926 26.81 42.4926C28.079 42.4926 29.141 41.6503 30.152 40.0851C30.137 41.314 30.404 42.4706 31.421 42.4706C31.901 42.4706 32.474 42.3543 32.576 41.9143C33.647 37.2754 36.293 33.4883 37.103 33.4883C37.343 33.4883 37.409 33.7303 37.409 34.0163C37.409 35.2766 36.56 37.86 36.56 39.51C36.56 41.292 37.283 42.4706 38.777 42.4706C40.433 42.4706 42.116 40.346 43.238 37.2409C43.589 40.1417 44.348 42.4831 45.536 42.4831C46.994 42.4831 49.583 39.268 51.152 35.8643C51.767 35.946 52.691 35.924 53.579 35.2671C53.201 36.2697 52.979 37.3666 52.979 38.4634C52.979 41.622 54.419 42.5083 55.658 42.5083C57.005 42.5083 58.097 41.666 58.934 40.1857C59.21 41.5214 59.915 42.4894 61.211 42.4894C63.239 42.4894 65 40.3177 65 38.5357C65 38.0643 64.808 37.7783 64.583 37.7783ZM22.49 40.7577C21.671 40.7577 21.35 39.8934 21.35 38.6049C21.35 36.3671 22.811 32.6303 24.356 32.6303C25.031 32.6303 25.286 33.4631 25.286 34.4814C25.286 36.7537 23.897 40.7577 22.49 40.7577ZM50.543 34.0791C50.054 33.4694 49.877 32.6397 49.877 31.9011C49.877 30.9897 50.195 30.2197 50.576 30.2197C50.957 30.2197 51.074 30.6126 51.074 31.1594C51.074 32.074 50.762 33.4097 50.543 34.0791ZM56.894 40.7577C56.075 40.7577 55.754 39.7646 55.754 38.6049C55.754 36.4457 57.215 32.6303 58.772 32.6303C59.447 32.6303 59.687 33.4569 59.687 34.4814C59.687 36.7537 58.322 40.7577 56.894 40.7577Z" fill="url(#paint4_radial_427_725)"/>
<defs>
<radialGradient id="paint0_radial_427_725" cx="0" cy="0" r="1" gradientUnits="userSpaceOnUse" gradientTransform="translate(35.72 46.3457) rotate(-47.1377) scale(18.5229 12.2807)">
<stop stop-color="#6420FF"/>
<stop offset="1" stop-color="#6420FF" stop-opacity="0"/>
</radialGradient>
<radialGradient id="paint1_radial_427_725" cx="0" cy="0" r="1" gradientUnits="userSpaceOnUse" gradientTransform="translate(6.44 37.42) rotate(5.32919) scale(35.1921 29.362)">
<stop offset="0.25" stop-color="#00C4CC"/>
<stop offset="1" stop-color="#00C4CC" stop-opacity="0"/>
</radialGradient>
<radialGradient id="paint2_radial_427_725" cx="0" cy="0" r="1" gradientUnits="userSpaceOnUse" gradientTransform="translate(30.605 44.1457) rotate(-40.1574) scale(23.1003 15.936)">
<stop stop-color="#6420FF"/>
<stop offset="1" stop-color="#6420FF" stop-opacity="0"/>
</radialGradient>
<radialGradient id="paint3_radial_427_725" cx="0" cy="0" r="1" gradientUnits="userSpaceOnUse" gradientTransform="translate(6.71 44.1457) rotate(-27.1929) scale(26.4089 18.5665)">
<stop stop-color="#6420FF"/>
<stop offset="1" stop-color="#6420FF" stop-opacity="0"/>
</radialGradient>
<radialGradient id="paint4_radial_427_725" cx="0" cy="0" r="1" gradientUnits="userSpaceOnUse" gradientTransform="translate(10.76 25.8543) rotate(13.0457) scale(52.351 66.9596)">
<stop stop-color="#00C4CC"/>
<stop offset="1" stop-color="#00C4CC" stop-opacity="0"/>
</radialGradient>
</defs>
</svg>
