<svg width="70" height="70" viewBox="0 0 70 70" fill="none" xmlns="http://www.w3.org/2000/svg">
<g clip-path="url(#clip0_427_726)">
<rect width="70" height="70" rx="2" fill="white"/>
<path d="M0 27.3154C0 17.6534 0 12.8223 1.91016 9.14514C3.51983 6.0464 6.0464 3.51983 9.14514 1.91016C12.8223 0 17.6534 0 27.3154 0H42.6846C52.3466 0 57.1776 0 60.8549 1.91016C63.9533 3.51983 66.4804 6.0464 68.0898 9.14514C70 12.8223 70 17.6534 70 27.3154V42.6846C70 52.3466 70 57.1776 68.0898 60.8549C66.4804 63.9533 63.9533 66.4804 60.8549 68.0898C57.1776 70 52.3466 70 42.6846 70H27.3154C17.6534 70 12.8223 70 9.14514 68.0898C6.0464 66.4804 3.51983 63.9533 1.91016 60.8549C0 57.1776 0 52.3466 0 42.6846V27.3154Z" fill="#C4C4C4"/>
<path d="M68 0H2C0.895431 0 0 0.89543 0 2V68C0 69.1046 0.89543 70 2 70H68C69.1046 70 70 69.1046 70 68V2C70 0.895431 69.1046 0 68 0Z" fill="#7D2AE7"/>
<path d="M68 0H2C0.895431 0 0 0.89543 0 2V68C0 69.1046 0.89543 70 2 70H68C69.1046 70 70 69.1046 70 68V2C70 0.895431 69.1046 0 68 0Z" fill="url(#paint0_radial_427_726)"/>
<path d="M68 0H2C0.895431 0 0 0.89543 0 2V68C0 69.1046 0.89543 70 2 70H68C69.1046 70 70 69.1046 70 68V2C70 0.895431 69.1046 0 68 0Z" fill="url(#paint1_radial_427_726)"/>
<path d="M68 0H2C0.895431 0 0 0.89543 0 2V68C0 69.1046 0.89543 70 2 70H68C69.1046 70 70 69.1046 70 68V2C70 0.895431 69.1046 0 68 0Z" fill="url(#paint2_radial_427_726)"/>
<path d="M68 0H2C0.895431 0 0 0.89543 0 2V68C0 69.1046 0.89543 70 2 70H68C69.1046 70 70 69.1046 70 68V2C70 0.895431 69.1046 0 68 0Z" fill="url(#paint3_radial_427_726)"/>
<path d="M68 0H2C0.895431 0 0 0.89543 0 2V68C0 69.1046 0.89543 70 2 70H68C69.1046 70 70 69.1046 70 68V2C70 0.895431 69.1046 0 68 0Z" fill="url(#paint4_radial_427_726)"/>
<path d="M63.2996 37.4948C63.2036 37.4948 63.1185 37.5573 63.0756 37.6824C62.4969 39.2943 61.7155 40.2565 61.0728 40.2565C60.7032 40.2565 60.5541 39.8535 60.5541 39.2213C60.5541 37.6442 61.5235 34.2954 62.0068 32.7669C62.0639 32.6093 62.0959 32.4441 62.1028 32.277C62.1028 31.8324 61.8537 31.6136 61.2396 31.6136C60.6249 31.6136 59.8617 31.8706 59.1728 33.0587C58.9311 32.0096 58.2066 31.551 57.1945 31.551C56.0261 31.551 54.8968 32.2875 53.9663 33.479C53.0359 34.6705 51.9456 35.0666 51.1217 34.872C51.7148 33.4582 51.9314 32.3986 51.9314 31.6136C51.9314 30.3803 51.3099 29.637 50.3048 29.637C48.7742 29.637 47.8935 31.0647 47.8935 32.5654C47.8935 33.7257 48.4297 34.9206 49.6159 35.5008C48.625 37.6928 47.1761 39.6764 46.6256 39.6764C45.9153 39.6764 45.7058 36.2789 45.7484 33.8473C45.7697 32.4542 45.8905 32.3813 45.8905 31.9575C45.8905 31.7178 45.7271 31.551 45.0843 31.551C43.5821 31.551 43.1133 32.7981 43.0458 34.2294C43.0199 34.7721 42.933 35.3103 42.7866 35.8343C42.1544 38.0298 40.8617 39.6938 40.0165 39.6938C39.6223 39.6938 39.5193 39.3082 39.5193 38.8079C39.5193 37.2308 40.4213 35.2542 40.4213 33.5728C40.4213 32.3326 39.8673 31.551 38.8197 31.551C37.5909 31.551 35.9608 32.9857 34.4195 35.6676C34.9274 33.6145 35.1333 31.624 33.6347 31.624C33.3085 31.6289 32.9883 31.7099 32.7006 31.8602C32.4946 31.9644 32.3846 32.152 32.3988 32.3604C32.5408 34.5524 30.5947 40.1558 28.748 40.1558C28.4106 40.1558 28.2507 39.8014 28.2507 39.2248C28.2507 37.6476 29.2132 34.3058 29.6961 32.7738C29.755 32.6071 29.7874 32.4326 29.7921 32.2562C29.7921 31.8394 29.5293 31.624 28.9291 31.624C28.2685 31.624 27.5547 31.8706 26.8622 33.0587C26.6207 32.0096 25.8962 31.551 24.8876 31.551C23.2291 31.551 21.3718 33.2671 20.5584 35.5077C19.4682 38.4953 17.2699 41.3785 14.3116 41.3785C11.6267 41.3785 10.2097 39.1935 10.2097 35.744C10.2097 30.7555 13.9529 26.6841 16.7265 26.6841C18.0547 26.6841 18.6869 27.5109 18.6869 28.7789C18.6869 30.3144 17.8132 31.0265 17.8132 31.6101C17.8132 31.7872 17.9624 31.9644 18.2643 31.9644C19.4717 31.9644 20.8887 30.5783 20.8887 28.6886C20.8887 26.7988 19.3226 25.4127 16.5454 25.4127C11.9606 25.4127 7.34375 29.9288 7.34375 35.7127C7.34375 40.3156 9.66639 43.0912 13.6795 43.0912C16.4175 43.0912 18.8112 41.0103 20.1039 38.5752C20.2495 40.5935 21.1835 41.6426 22.6076 41.6426C23.8754 41.6426 24.9018 40.9061 25.6867 39.6069C25.9885 40.9652 26.7876 41.6321 27.8281 41.6321C29.0214 41.6321 30.0158 40.8922 30.964 39.5201C30.9498 40.5969 31.2019 41.6113 32.1573 41.6113C32.6083 41.6113 33.1481 41.5106 33.244 41.1249C34.2455 37.0571 36.735 33.7361 37.495 33.7361C37.7187 33.7361 37.7791 33.9445 37.7791 34.1981C37.7791 35.3028 36.9836 37.5677 36.9836 39.0129C36.9836 40.5796 37.6619 41.6113 39.0647 41.6113C40.6202 41.6113 42.2006 39.7493 43.2554 37.0258C43.5856 39.5687 44.2995 41.6217 45.411 41.6217C46.7819 41.6217 49.2146 38.8044 50.6884 35.8169C51.2637 35.8899 52.1338 35.8725 52.9648 35.2958C52.6132 36.1748 52.4037 37.137 52.4037 38.0958C52.4037 40.8679 53.7532 41.6426 54.9181 41.6426C56.1859 41.6426 57.2123 40.9061 57.9972 39.6069C58.2564 40.7776 58.9168 41.6287 60.1353 41.6287C62.0388 41.6287 63.6937 39.725 63.6937 38.1617C63.6937 37.7484 63.5127 37.4948 63.2996 37.4948ZM23.7725 40.1106C23.0018 40.1106 22.6999 39.3499 22.6999 38.2208C22.6999 36.2616 24.0708 32.9823 25.5233 32.9823C26.1555 32.9823 26.3969 33.7152 26.3969 34.608C26.3969 36.5986 25.0936 40.1106 23.7725 40.1106ZM50.1166 34.2537C49.6585 33.7187 49.4916 32.9892 49.4916 32.3431C49.4916 31.5441 49.7899 30.8702 50.1486 30.8702C50.5073 30.8702 50.6138 31.2141 50.6138 31.6935C50.6138 32.4925 50.3226 33.6666 50.1166 34.2537ZM56.0794 40.1106C55.3123 40.1106 55.0104 39.2386 55.0104 38.2208C55.0104 36.3276 56.3812 32.9823 57.8444 32.9823C58.4764 32.9823 58.7038 33.7048 58.7038 34.608C58.7038 36.5986 57.4218 40.1106 56.0794 40.1106Z" fill="white"/>
</g>
<defs>
<radialGradient id="paint0_radial_427_726" cx="0" cy="0" r="1" gradientUnits="userSpaceOnUse" gradientTransform="translate(13.521 62.042) rotate(-49.4156) scale(54.139)">
<stop stop-color="#6420FF"/>
<stop offset="1" stop-color="#6420FF" stop-opacity="0"/>
</radialGradient>
<radialGradient id="paint1_radial_427_726" cx="0" cy="0" r="1" gradientUnits="userSpaceOnUse" gradientTransform="translate(18.5315 7.95787) rotate(54.7035) scale(61.0519)">
<stop stop-color="#00C4CC"/>
<stop offset="1" stop-color="#00C4CC" stop-opacity="0"/>
</radialGradient>
<radialGradient id="paint2_radial_427_726" cx="0" cy="0" r="1" gradientUnits="userSpaceOnUse" gradientTransform="translate(13.521 62.0419) rotate(-45.1954) scale(53.4836 24.5979)">
<stop stop-color="#6420FF"/>
<stop offset="1" stop-color="#6420FF" stop-opacity="0"/>
</radialGradient>
<radialGradient id="paint3_radial_427_726" cx="0" cy="0" r="1" gradientUnits="userSpaceOnUse" gradientTransform="translate(28.6263 9.43155) rotate(66.5198) scale(55.1106 92.3223)">
<stop stop-color="#00C4CC" stop-opacity="0.725916"/>
<stop offset="0.0001" stop-color="#00C4CC"/>
<stop offset="1" stop-color="#00C4CC" stop-opacity="0"/>
</radialGradient>
<radialGradient id="paint4_radial_427_726" cx="0" cy="0" r="1" gradientUnits="userSpaceOnUse" gradientTransform="translate(2.59765 1.98243) rotate(48.8515) scale(59.0082 98.8519)">
<stop stop-color="#00C4CC" stop-opacity="0.725916"/>
<stop offset="0.0001" stop-color="#00C4CC"/>
<stop offset="1" stop-color="#00C4CC" stop-opacity="0"/>
</radialGradient>
<clipPath id="clip0_427_726">
<rect width="70" height="70" rx="2" fill="white"/>
</clipPath>
</defs>
</svg>
